<mxfile host="65bd71144e">
    <diagram id="zW9d0-AP0KAFxC2TMM4V" name="Page-1">
        <mxGraphModel dx="1497" dy="987" grid="0" gridSize="10" guides="0" tooltips="1" connect="1" arrows="1" fold="1" page="1" pageScale="1" pageWidth="827" pageHeight="1169" background="#ffffff" math="0" shadow="0">
            <root>
                <mxCell id="0"/>
                <mxCell id="1" parent="0"/>
                <mxCell id="14" value="&lt;p style=&quot;line-height: 100%;&quot;&gt;&lt;font style=&quot;font-size: 16px;&quot; color=&quot;#050505&quot;&gt;Match tal med compoutcom og vis outcome&lt;/font&gt;&lt;/p&gt;" style="text;html=1;strokeColor=none;fillColor=none;align=center;verticalAlign=middle;whiteSpace=wrap;rounded=0;strokeWidth=4;fontSize=20;" parent="1" vertex="1">
                    <mxGeometry x="464" y="395" width="200" height="30" as="geometry"/>
                </mxCell>
                <mxCell id="27" value="" style="edgeStyle=none;html=1;strokeColor=#000000;strokeWidth=2;fontSize=16;fontColor=#050505;rounded=0;" parent="1" source="2" edge="1">
                    <mxGeometry relative="1" as="geometry">
                        <mxPoint x="480" y="60" as="targetPoint"/>
                    </mxGeometry>
                </mxCell>
                <mxCell id="2" value="" style="ellipse;whiteSpace=wrap;html=1;aspect=fixed;fillColor=default;strokeColor=default;rounded=0;" parent="1" vertex="1">
                    <mxGeometry x="464" width="30" height="30" as="geometry"/>
                </mxCell>
                <mxCell id="26" value="" style="edgeStyle=none;html=1;strokeColor=#000000;strokeWidth=2;fontSize=16;fontColor=#050505;rounded=0;" parent="1" source="3" edge="1">
                    <mxGeometry relative="1" as="geometry">
                        <mxPoint x="480" y="170" as="targetPoint"/>
                    </mxGeometry>
                </mxCell>
                <mxCell id="3" value="" style="rounded=0;whiteSpace=wrap;html=1;strokeColor=#0a0a0a;fillColor=none;strokeWidth=2;" parent="1" vertex="1">
                    <mxGeometry x="348.5" y="70" width="261" height="60" as="geometry"/>
                </mxCell>
                <mxCell id="4" value="&lt;font color=&quot;#050505&quot; style=&quot;font-size: 20px;&quot;&gt;VÃ¦lg outcome&lt;br&gt;Start spil&lt;br&gt;&lt;/font&gt;" style="text;html=1;strokeColor=none;fillColor=none;align=center;verticalAlign=middle;whiteSpace=wrap;rounded=0;strokeWidth=4;fontSize=20;" parent="1" vertex="1">
                    <mxGeometry x="380" y="85" width="200" height="30" as="geometry"/>
                </mxCell>
                <mxCell id="60" style="edgeStyle=none;html=1;strokeColor=#000000;strokeWidth=2;fontSize=16;fontColor=#050505;rounded=0;" parent="1" source="5" edge="1">
                    <mxGeometry relative="1" as="geometry">
                        <mxPoint x="220" y="344.33333333333326" as="targetPoint"/>
                    </mxGeometry>
                </mxCell>
                <mxCell id="5" value="" style="rounded=0;whiteSpace=wrap;html=1;strokeColor=#0a0a0a;strokeWidth=2;fontSize=20;fontColor=#050505;fillColor=none;" parent="1" vertex="1">
                    <mxGeometry x="110" y="250" width="220" height="60" as="geometry"/>
                </mxCell>
                <mxCell id="6" value="&lt;font color=&quot;#050505&quot; style=&quot;font-size: 20px;&quot;&gt;Start shake&lt;/font&gt;" style="text;html=1;strokeColor=none;fillColor=none;align=center;verticalAlign=middle;whiteSpace=wrap;rounded=0;strokeWidth=4;fontSize=20;" parent="1" vertex="1">
                    <mxGeometry x="120" y="265" width="200" height="30" as="geometry"/>
                </mxCell>
                <mxCell id="25" style="edgeStyle=none;html=1;strokeColor=#000000;strokeWidth=2;fontSize=16;fontColor=#050505;rounded=0;" parent="1" source="7" edge="1">
                    <mxGeometry relative="1" as="geometry">
                        <mxPoint x="740" y="510" as="targetPoint"/>
                    </mxGeometry>
                </mxCell>
                <mxCell id="7" value="" style="rounded=0;whiteSpace=wrap;html=1;strokeColor=#0a0a0a;strokeWidth=2;fontSize=20;fontColor=#050505;fillColor=none;" parent="1" vertex="1">
                    <mxGeometry x="730" y="380" width="220" height="60" as="geometry"/>
                </mxCell>
                <mxCell id="8" value="&lt;font color=&quot;#050505&quot; style=&quot;font-size: 20px;&quot;&gt;Vis valg&lt;/font&gt;" style="text;html=1;strokeColor=none;fillColor=none;align=center;verticalAlign=middle;whiteSpace=wrap;rounded=0;strokeWidth=4;fontSize=20;" parent="1" vertex="1">
                    <mxGeometry x="740" y="395" width="200" height="30" as="geometry"/>
                </mxCell>
                <mxCell id="20" style="edgeStyle=none;html=1;strokeColor=#000000;strokeWidth=2;fontSize=16;fontColor=#050505;rounded=0;" parent="1" source="9" edge="1">
                    <mxGeometry relative="1" as="geometry">
                        <mxPoint x="560" y="360" as="targetPoint"/>
                    </mxGeometry>
                </mxCell>
                <mxCell id="21" style="edgeStyle=none;html=1;strokeColor=#000000;strokeWidth=2;fontSize=16;fontColor=#050505;rounded=0;" parent="1" source="9" edge="1">
                    <mxGeometry relative="1" as="geometry">
                        <mxPoint x="840" y="370" as="targetPoint"/>
                    </mxGeometry>
                </mxCell>
                <mxCell id="9" value="" style="shape=collate;whiteSpace=wrap;html=1;strokeColor=#0a0a0a;strokeWidth=4;fontSize=20;fontColor=#050505;fillColor=none;rounded=0;" parent="1" vertex="1">
                    <mxGeometry x="670" y="250" width="40" height="40" as="geometry"/>
                </mxCell>
                <mxCell id="17" style="edgeStyle=none;html=1;fontSize=16;fontColor=#050505;strokeColor=#000000;strokeWidth=2;rounded=0;" parent="1" source="10" edge="1">
                    <mxGeometry relative="1" as="geometry">
                        <mxPoint x="220" y="240" as="targetPoint"/>
                        <Array as="points">
                            <mxPoint x="220" y="185"/>
                        </Array>
                    </mxGeometry>
                </mxCell>
                <mxCell id="18" style="edgeStyle=none;html=1;strokeColor=#000000;strokeWidth=2;fontSize=16;fontColor=#050505;rounded=0;" parent="1" source="10" edge="1">
                    <mxGeometry relative="1" as="geometry">
                        <mxPoint x="480" y="240" as="targetPoint"/>
                    </mxGeometry>
                </mxCell>
                <mxCell id="19" style="edgeStyle=none;html=1;strokeColor=#000000;strokeWidth=2;fontSize=16;fontColor=#050505;rounded=0;" parent="1" source="10" edge="1">
                    <mxGeometry relative="1" as="geometry">
                        <mxPoint x="690" y="240" as="targetPoint"/>
                        <Array as="points">
                            <mxPoint x="690" y="185"/>
                        </Array>
                    </mxGeometry>
                </mxCell>
                <mxCell id="10" value="" style="rounded=0;whiteSpace=wrap;html=1;strokeColor=#0a0a0a;strokeWidth=4;fontSize=20;fontColor=#050505;fillColor=default;" parent="1" vertex="1">
                    <mxGeometry x="360" y="180" width="240" height="10" as="geometry"/>
                </mxCell>
                <mxCell id="58" style="edgeStyle=none;html=1;strokeColor=#000000;strokeWidth=2;fontSize=16;fontColor=#050505;rounded=0;" parent="1" source="11" edge="1">
                    <mxGeometry relative="1" as="geometry">
                        <mxPoint x="422.66666666666674" y="343" as="targetPoint"/>
                    </mxGeometry>
                </mxCell>
                <mxCell id="11" value="" style="rounded=0;whiteSpace=wrap;html=1;strokeColor=#0a0a0a;strokeWidth=2;fontSize=20;fontColor=#050505;fillColor=none;" parent="1" vertex="1">
                    <mxGeometry x="358.5" y="250" width="220" height="60" as="geometry"/>
                </mxCell>
                <mxCell id="12" value="&lt;font color=&quot;#050505&quot; style=&quot;font-size: 20px;&quot;&gt;Lav et tal mellem 1-3&lt;/font&gt;" style="text;html=1;strokeColor=none;fillColor=none;align=center;verticalAlign=middle;whiteSpace=wrap;rounded=0;strokeWidth=4;fontSize=20;" parent="1" vertex="1">
                    <mxGeometry x="368.5" y="265" width="200" height="30" as="geometry"/>
                </mxCell>
                <mxCell id="24" style="edgeStyle=none;html=1;strokeColor=#000000;strokeWidth=2;fontSize=16;fontColor=#050505;rounded=0;" parent="1" source="13" edge="1">
                    <mxGeometry relative="1" as="geometry">
                        <mxPoint x="650" y="510" as="targetPoint"/>
                    </mxGeometry>
                </mxCell>
                <mxCell id="13" value="" style="rounded=0;whiteSpace=wrap;html=1;strokeColor=#0a0a0a;strokeWidth=2;fontSize=20;fontColor=#050505;fillColor=none;" parent="1" vertex="1">
                    <mxGeometry x="454" y="375" width="220" height="70" as="geometry"/>
                </mxCell>
                <mxCell id="34" style="edgeStyle=none;html=1;strokeColor=#000000;strokeWidth=2;fontSize=16;fontColor=#050505;rounded=0;" parent="1" source="22" edge="1">
                    <mxGeometry relative="1" as="geometry">
                        <mxPoint x="710" y="570" as="targetPoint"/>
                    </mxGeometry>
                </mxCell>
                <mxCell id="22" value="" style="rounded=0;whiteSpace=wrap;html=1;strokeColor=#0a0a0a;strokeWidth=4;fontSize=20;fontColor=#050505;fillColor=default;" parent="1" vertex="1">
                    <mxGeometry x="590" y="520" width="240" height="10" as="geometry"/>
                </mxCell>
                <mxCell id="30" value="[5 sec]" style="text;html=1;strokeColor=none;fillColor=none;align=center;verticalAlign=middle;whiteSpace=wrap;rounded=0;strokeWidth=2;fontSize=16;fontColor=#050505;" parent="1" vertex="1">
                    <mxGeometry x="700" y="255" width="95" height="30" as="geometry"/>
                </mxCell>
                <mxCell id="51" style="edgeStyle=none;html=1;strokeColor=#000000;strokeWidth=2;fontSize=16;fontColor=#050505;rounded=0;" parent="1" source="32" edge="1">
                    <mxGeometry relative="1" as="geometry">
                        <mxPoint x="920" y="930" as="targetPoint"/>
                    </mxGeometry>
                </mxCell>
                <mxCell id="32" value="" style="rounded=0;whiteSpace=wrap;html=1;strokeColor=#0a0a0a;strokeWidth=2;fontSize=20;fontColor=#050505;fillColor=none;" parent="1" vertex="1">
                    <mxGeometry x="800" y="830" width="220" height="60" as="geometry"/>
                </mxCell>
                <mxCell id="33" value="&lt;font color=&quot;#050505&quot; style=&quot;font-size: 20px;&quot;&gt;Vinder&lt;/font&gt;" style="text;html=1;strokeColor=none;fillColor=none;align=center;verticalAlign=middle;whiteSpace=wrap;rounded=0;strokeWidth=4;fontSize=20;" parent="1" vertex="1">
                    <mxGeometry x="810" y="845" width="200" height="30" as="geometry"/>
                </mxCell>
                <mxCell id="50" style="edgeStyle=none;html=1;strokeColor=#000000;strokeWidth=2;fontSize=16;fontColor=#050505;rounded=0;" parent="1" source="35" edge="1">
                    <mxGeometry relative="1" as="geometry">
                        <mxPoint x="670" y="930" as="targetPoint"/>
                    </mxGeometry>
                </mxCell>
                <mxCell id="35" value="" style="rounded=0;whiteSpace=wrap;html=1;strokeColor=#0a0a0a;strokeWidth=2;fontSize=20;fontColor=#050505;fillColor=none;" parent="1" vertex="1">
                    <mxGeometry x="560" y="830" width="220" height="60" as="geometry"/>
                </mxCell>
                <mxCell id="36" value="&lt;font color=&quot;#050505&quot; style=&quot;font-size: 20px;&quot;&gt;Uafgjort&lt;/font&gt;" style="text;html=1;strokeColor=none;fillColor=none;align=center;verticalAlign=middle;whiteSpace=wrap;rounded=0;strokeWidth=4;fontSize=20;" parent="1" vertex="1">
                    <mxGeometry x="570" y="845" width="200" height="30" as="geometry"/>
                </mxCell>
                <mxCell id="49" value="" style="edgeStyle=none;html=1;strokeColor=#000000;strokeWidth=2;fontSize=16;fontColor=#050505;rounded=0;" parent="1" source="37" edge="1">
                    <mxGeometry relative="1" as="geometry">
                        <mxPoint x="425" y="930" as="targetPoint"/>
                    </mxGeometry>
                </mxCell>
                <mxCell id="37" value="" style="rounded=0;whiteSpace=wrap;html=1;strokeColor=#0a0a0a;strokeWidth=2;fontSize=20;fontColor=#050505;fillColor=none;" parent="1" vertex="1">
                    <mxGeometry x="320" y="830" width="220" height="60" as="geometry"/>
                </mxCell>
                <mxCell id="38" value="&lt;font color=&quot;#050505&quot;&gt;Taber&lt;/font&gt;" style="text;html=1;strokeColor=none;fillColor=none;align=center;verticalAlign=middle;whiteSpace=wrap;rounded=0;strokeWidth=4;fontSize=20;" parent="1" vertex="1">
                    <mxGeometry x="330" y="845" width="200" height="30" as="geometry"/>
                </mxCell>
                <mxCell id="40" style="edgeStyle=none;html=1;strokeColor=#000000;strokeWidth=2;fontSize=16;fontColor=#050505;rounded=0;" parent="1" source="39" edge="1">
                    <mxGeometry relative="1" as="geometry">
                        <mxPoint x="920" y="810" as="targetPoint"/>
                        <Array as="points">
                            <mxPoint x="920" y="740"/>
                        </Array>
                    </mxGeometry>
                </mxCell>
                <mxCell id="41" style="edgeStyle=none;html=1;strokeColor=#000000;strokeWidth=2;fontSize=16;fontColor=#050505;rounded=0;" parent="1" source="39" edge="1">
                    <mxGeometry relative="1" as="geometry">
                        <mxPoint x="420" y="820" as="targetPoint"/>
                        <Array as="points">
                            <mxPoint x="420" y="740"/>
                        </Array>
                    </mxGeometry>
                </mxCell>
                <mxCell id="42" style="edgeStyle=none;html=1;strokeColor=#000000;strokeWidth=2;fontSize=16;fontColor=#050505;rounded=0;" parent="1" source="39" edge="1">
                    <mxGeometry relative="1" as="geometry">
                        <mxPoint x="710" y="820" as="targetPoint"/>
                    </mxGeometry>
                </mxCell>
                <mxCell id="39" value="" style="rhombus;whiteSpace=wrap;html=1;strokeColor=#0a0a0a;strokeWidth=2;fontSize=16;fontColor=#050505;fillColor=none;rounded=0;" parent="1" vertex="1">
                    <mxGeometry x="670" y="700" width="80" height="80" as="geometry"/>
                </mxCell>
                <mxCell id="43" value="[if vinder]&lt;span style=&quot;color: rgba(0, 0, 0, 0); font-family: monospace; font-size: 0px; text-align: start;&quot;&gt;%3CmxGraphModel%3E%3Croot%3E%3CmxCell%20id%3D%220%22%2F%3E%3CmxCell%20id%3D%221%22%20parent%3D%220%22%2F%3E%3CmxCell%20id%3D%222%22%20value%3D%22%5BSettimeoout%205%20sec%5D%22%20style%3D%22text%3Bhtml%3D1%3BstrokeColor%3Dnone%3BfillColor%3Dnone%3Balign%3Dcenter%3BverticalAlign%3Dmiddle%3BwhiteSpace%3Dwrap%3Brounded%3D0%3BstrokeWidth%3D2%3BfontSize%3D16%3BfontColor%3D%23050505%3B%22%20vertex%3D%221%22%20parent%3D%221%22%3E%3CmxGeometry%20x%3D%22700%22%20y%3D%22255%22%20width%3D%22170%22%20height%3D%2230%22%20as%3D%22geometry%22%2F%3E%3C%2FmxCell%3E%3C%2Froot%3E%3C%2FmxGraphModel%3E&lt;/span&gt;" style="text;html=1;strokeColor=none;fillColor=none;align=center;verticalAlign=middle;whiteSpace=wrap;rounded=0;strokeWidth=2;fontSize=16;fontColor=#050505;" parent="1" vertex="1">
                    <mxGeometry x="780" y="700" width="90" height="30" as="geometry"/>
                </mxCell>
                <mxCell id="44" value="[if taber]&lt;span style=&quot;color: rgba(0, 0, 0, 0); font-family: monospace; font-size: 0px; text-align: start;&quot;&gt;%3CmxGraphModel%3E%3Croot%3E%3CmxCell%20id%3D%220%22%2F%3E%3CmxCell%20id%3D%221%22%20parent%3D%220%22%2F%3E%3CmxCell%20id%3D%222%22%20value%3D%22%5BSettimeoout%205%20sec%5D%22%20style%3D%22text%3Bhtml%3D1%3BstrokeColor%3Dnone%3BfillColor%3Dnone%3Balign%3Dcenter%3BverticalAlign%3Dmiddle%3BwhiteSpace%3Dwrap%3Brounded%3D0%3BstrokeWidth%3D2%3BfontSize%3D16%3BfontColor%3D%23050505%3B%22%20vertex%3D%221%22%20parent%3D%221%22%3E%3CmxGeometry%20x%3D%22700%22%20y%3D%22255%22%20width%3D%22170%22%20height%3D%2230%22%20as%3D%22geometry%22%2F%3E%3C%2FmxCell%3E%3C%2Froot%3E%3C%2FmxGraphModel%3E]&lt;/span&gt;" style="text;html=1;strokeColor=none;fillColor=none;align=center;verticalAlign=middle;whiteSpace=wrap;rounded=0;strokeWidth=2;fontSize=16;fontColor=#050505;" parent="1" vertex="1">
                    <mxGeometry x="519.5" y="700" width="70.5" height="30" as="geometry"/>
                </mxCell>
                <mxCell id="45" value="[else]" style="text;html=1;strokeColor=none;fillColor=none;align=center;verticalAlign=middle;whiteSpace=wrap;rounded=0;strokeWidth=2;fontSize=16;fontColor=#050505;" parent="1" vertex="1">
                    <mxGeometry x="629.5" y="780" width="70.5" height="30" as="geometry"/>
                </mxCell>
                <mxCell id="46" value="" style="shape=sumEllipse;perimeter=ellipsePerimeter;whiteSpace=wrap;html=1;backgroundOutline=1;strokeColor=#0a0a0a;strokeWidth=2;fontSize=16;fontColor=#050505;fillColor=none;rounded=0;" parent="1" vertex="1">
                    <mxGeometry x="393" y="348" width="30" height="30" as="geometry"/>
                </mxCell>
                <mxCell id="48" value="" style="shape=sumEllipse;perimeter=ellipsePerimeter;whiteSpace=wrap;html=1;backgroundOutline=1;strokeColor=#0a0a0a;strokeWidth=2;fontSize=16;fontColor=#050505;fillColor=none;rounded=0;" parent="1" vertex="1">
                    <mxGeometry x="204" y="353" width="30" height="30" as="geometry"/>
                </mxCell>
                <mxCell id="55" style="edgeStyle=none;html=1;strokeColor=#000000;strokeWidth=2;fontSize=16;fontColor=#050505;rounded=0;" parent="1" source="53" edge="1">
                    <mxGeometry relative="1" as="geometry">
                        <mxPoint x="714" y="689.6666666666667" as="targetPoint"/>
                    </mxGeometry>
                </mxCell>
                <mxCell id="53" value="" style="rounded=0;whiteSpace=wrap;html=1;strokeColor=#0a0a0a;strokeWidth=2;fontSize=20;fontColor=#050505;fillColor=none;" parent="1" vertex="1">
                    <mxGeometry x="604" y="581" width="220" height="60" as="geometry"/>
                </mxCell>
                <mxCell id="54" value="&lt;font color=&quot;#050505&quot; style=&quot;font-size: 20px;&quot;&gt;Sammenlign valg&lt;/font&gt;" style="text;html=1;strokeColor=none;fillColor=none;align=center;verticalAlign=middle;whiteSpace=wrap;rounded=0;strokeWidth=4;fontSize=20;" parent="1" vertex="1">
                    <mxGeometry x="614" y="596" width="200" height="30" as="geometry"/>
                </mxCell>
                <mxCell id="62" value="" style="ellipse;shape=doubleEllipse;whiteSpace=wrap;html=1;aspect=fixed;strokeColor=#f4f1f1;strokeWidth=2;fontSize=16;fontColor=#050505;fillColor=default;rounded=0;" parent="1" vertex="1">
                    <mxGeometry x="906" y="941" width="31" height="31" as="geometry"/>
                </mxCell>
                <mxCell id="63" value="" style="ellipse;shape=doubleEllipse;whiteSpace=wrap;html=1;aspect=fixed;strokeColor=#f4f1f1;strokeWidth=2;fontSize=16;fontColor=#050505;fillColor=default;rounded=0;" parent="1" vertex="1">
                    <mxGeometry x="657" y="943" width="31" height="31" as="geometry"/>
                </mxCell>
                <mxCell id="64" value="" style="ellipse;shape=doubleEllipse;whiteSpace=wrap;html=1;aspect=fixed;strokeColor=#f4f1f1;strokeWidth=2;fontSize=16;fontColor=#050505;fillColor=default;rounded=0;" parent="1" vertex="1">
                    <mxGeometry x="411" y="941" width="31" height="31" as="geometry"/>
                </mxCell>
            </root>
        </mxGraphModel>
    </diagram>
</mxfile>